ply
format ascii 1.0
element vertex 403
property float x
property float y
property float z
property uchar blue
property uchar green
property uchar red
end_header
0.992296 -2.201017 6.913809 27 37 97
0.048296 -1.915766 6.380546 85 107 148
0.227758 -1.940337 6.473292 65 80 112
0.804842 -1.906821 6.609070 17 31 79
0.517617 -1.457206 5.095513 44 72 136
1.170314 -1.843378 6.651039 66 88 124
-0.016419 -1.636848 6.046227 8 24 66
0.231610 -1.645425 6.167636 136 157 188
-1.109344 -0.806778 5.178647 8 10 34
-0.943850 -0.742352 5.166805 74 86 128
-0.956701 -0.704284 5.035104 85 92 135
-0.994609 -0.732153 5.166639 18 19 63
-0.597824 0.251619 0.960154 4 28 74
0.905652 -2.208052 6.875444 38 73 117
0.790345 -2.157808 6.803939 118 139 170
0.987856 -2.161902 6.863626 79 108 139
0.110936 -2.043446 6.503868 104 132 166
0.112225 -2.019154 6.484025 41 72 111
0.231270 -1.994399 6.499843 91 115 145
0.719077 -1.933913 6.599950 6 32 68
0.741718 -1.904678 6.573625 11 35 87
0.181814 -1.844154 6.357258 11 28 77
1.221197 -1.960437 6.806053 77 100 132
0.621136 -1.410419 4.847216 17 51 94
0.739004 -1.892413 6.582523 73 102 141
1.092502 -1.903377 6.691939 24 35 62
0.797410 -1.850913 6.554792 82 113 136
0.670268 -1.786595 6.411994 21 34 90
1.079432 -1.865807 6.702326 11 30 73
1.079432 -1.865807 6.702326 11 30 73
0.188350 -1.739218 6.253425 29 42 98
0.787542 -1.797463 6.490811 53 69 112
1.227954 -1.944708 7.020966 0 18 51
0.091170 -1.703380 6.194903 29 56 100
0.136834 -1.702186 6.196073 8 37 98
0.075548 -1.696189 6.179205 69 93 135
1.022972 -1.798765 6.582862 15 47 83
0.049473 -1.673700 6.148513 73 107 137
0.723096 -1.725886 6.404232 19 33 82
0.179771 -1.638580 6.143185 81 99 140
0.801514 -1.689621 6.416954 17 26 89
0.645371 -1.644000 6.288248 68 92 144
0.791799 -1.659864 6.373475 98 126 157
1.207779 -1.701631 6.555996 1 8 57
0.971830 -1.671503 6.455655 65 90 134
1.523168 -2.134000 8.187108 88 107 142
1.370080 -1.837993 7.092104 31 54 100
0.411275 -1.596139 6.186888 15 33 74
0.862685 -1.626926 6.363485 80 102 144
0.693615 -1.592537 6.268990 12 23 61
0.519151 -1.580876 6.215779 82 108 144
0.889120 -1.540889 6.316725 0 16 83
0.889120 -1.540889 6.316725 0 16 83
0.717207 -1.496997 6.208317 95 121 158
-0.857606 -1.016549 5.430090 72 77 110
-1.407334 -0.880746 5.213573 59 69 117
-1.199618 -0.808452 5.201004 45 57 91
-1.250085 -0.756163 5.100351 64 67 98
-0.936715 -0.679646 5.117471 67 79 121
-0.871642 -0.435758 3.542395 57 72 118
-0.167253 0.188313 4.618248 35 51 97
0.027754 0.390376 4.466903 39 60 112
0.142912 0.406411 4.469013 52 79 129
-1.969092 1.018067 3.548650 48 73 123
0.949172 -2.171817 6.864884 82 107 149
0.921878 -2.168155 6.857894 19 52 85
0.834079 -2.146023 6.815128 26 53 103
0.245482 -2.032722 6.524730 104 130 166
0.064825 -2.001964 6.442463 35 58 103
0.052627 -1.990617 6.446742 99 113 162
0.854862 -2.134914 6.941667 26 44 91
0.912860 -2.028077 6.721855 20 46 76
0.927168 -1.997189 6.720913 87 110 156
0.737295 -1.965621 6.635864 32 53 105
0.117317 -1.886830 6.377256 80 116 152
0.963371 -1.960344 6.691191 14 31 70
0.863037 -1.945461 6.671032 73 91 138
0.056657 -1.820155 6.285571 65 75 122
1.370577 -1.982199 6.883891 6 22 64
0.909798 -1.913751 6.648309 67 91 127
0.170966 -1.799818 6.292659 96 127 160
1.175068 -1.927608 6.777119 21 26 57
0.100795 -1.785784 6.254490 20 30 70
0.192458 -1.785719 6.296601 5 24 67
1.078833 -1.872932 6.670593 62 90 124
1.107394 -1.879175 6.690411 0 25 65
0.201017 -1.761401 6.277855 91 121 148
0.802845 -1.829702 6.541084 1 12 44
0.231892 -1.754589 6.273712 0 32 81
0.753898 -1.774076 6.440631 16 35 80
0.885787 -1.787563 6.526917 71 95 131
1.206911 -1.824011 6.682923 85 107 142
0.993148 -1.764320 6.557730 0 12 52
0.122089 -1.639006 6.110658 21 47 94
0.839275 -1.703007 6.411250 10 32 84
0.143748 -1.639656 6.143381 84 116 152
0.165406 -1.637111 6.173057 30 54 84
0.640062 -1.670712 6.327221 27 41 99
0.851363 -1.684175 6.387357 77 104 148
0.698556 -1.649470 6.320769 8 49 94
0.698556 -1.649470 6.320769 8 49 94
0.747684 -1.661143 6.359655 16 31 93
0.850776 -1.664923 6.389278 3 37 97
0.360100 -1.591050 6.161762 87 128 160
1.033655 -1.664102 6.465983 4 4 68
0.112791 -0.991300 3.864229 85 123 147
0.735005 -1.590472 6.291856 105 116 143
0.817043 -1.575091 6.288407 101 117 164
0.857400 -1.578298 6.328393 72 106 142
0.557594 -1.539100 6.172045 87 118 151
0.698850 -1.546869 6.233703 86 111 153
0.698850 -1.546869 6.233703 86 111 153
0.822327 -1.557695 6.292397 15 48 97
0.817087 -1.518053 6.259340 87 107 132
-1.041906 -0.873881 5.253078 44 53 86
-1.041906 -0.873881 5.253078 44 53 86
-0.787767 -0.864828 5.317191 74 82 122
-1.099972 -0.827422 5.130531 68 77 121
3.632684 -1.174999 7.457765 16 41 97
-0.886802 -0.809015 5.235208 19 17 46
-1.013785 -0.801255 5.217437 19 19 49
-1.005626 -0.721549 5.142716 69 71 105
-1.005626 -0.721549 5.142716 69 71 105
-0.271334 0.012123 4.737005 60 76 119
0.825985 0.127017 5.042123 2 19 75
0.825985 0.127017 5.042123 2 19 75
-0.167942 0.222779 4.256406 46 69 114
-1.797916 0.315976 4.134115 18 40 81
0.152021 0.440980 4.508627 50 77 127
0.055292 0.436761 4.445423 35 56 101
-2.886654 0.515259 4.510500 12 23 67
0.491161 0.597170 4.494960 1 16 65
0.462865 0.617863 4.466420 44 58 107
-1.656266 0.692365 3.792414 15 30 79
-1.609765 0.722092 3.783118 62 91 142
-0.015428 0.843473 4.088406 6 26 74
-0.015428 0.843473 4.088406 6 26 74
-2.110567 0.810456 3.723386 7 25 62
-1.929496 0.825650 3.698073 3 17 45
-1.981070 0.874234 3.663799 51 69 110
-2.118852 0.878799 3.670328 21 34 72
-1.961230 0.884287 3.648236 14 26 68
-1.901594 0.895767 3.631142 16 32 55
-1.394499 0.951518 3.242681 6 23 66
0.943391 1.224803 4.124685 6 2 27
2.132598 2.834775 9.352969 0 20 75
-1.758466 1.060454 3.486655 22 34 74
0.501097 1.244196 3.957129 0 19 67
-1.657336 1.291332 3.319522 5 19 47
-1.657336 1.291332 3.319522 5 19 47
0.266417 -2.072639 6.571491 51 84 134
0.806723 -2.092170 6.767734 26 44 91
0.253239 -1.997314 6.502357 12 39 90
0.791432 -2.021298 6.693408 92 125 171
0.844913 -1.965143 6.665594 88 105 138
0.754500 -1.947625 6.646810 78 88 136
0.754500 -1.947625 6.646810 78 88 136
0.045796 -1.854449 6.319208 12 24 58
1.088896 -1.938501 6.750185 76 107 132
0.746783 -1.867910 6.528251 72 103 142
0.720984 -1.854977 6.534288 11 28 67
0.060793 -1.762435 6.218458 28 35 85
0.750689 -1.826067 6.501393 73 95 137
0.090149 -1.759648 6.246466 89 115 152
5.157755 -2.600480 9.303639 18 47 98
1.152195 -1.849504 6.677641 11 23 51
0.954459 -1.800923 6.562545 2 19 58
0.113765 -1.694564 6.190377 112 141 178
0.113765 -1.694564 6.190377 112 141 178
1.080893 -1.790449 6.594862 17 21 50
0.663280 -1.728575 6.375141 10 40 89
1.037102 -1.770267 6.560285 70 108 150
0.692191 -1.684347 6.355264 0 14 63
0.929262 -1.711949 6.474131 77 111 140
0.987004 -1.711671 6.514059 1 17 33
1.373661 -1.867206 7.127088 106 138 167
0.711103 -1.622616 6.302861 103 136 175
0.838514 -1.615374 6.347788 30 56 93
0.838514 -1.615374 6.347788 30 56 93
1.012226 -1.636807 6.439267 101 132 155
0.707716 -1.585893 6.275142 10 14 73
-0.814286 -0.826113 5.273447 17 20 64
3.794395 -1.074096 7.464890 19 45 92
4.315336 -0.663775 7.471421 15 46 101
3.786314 -0.504695 7.057555 16 43 94
-2.839906 0.141423 5.565459 12 25 77
1.251364 0.116721 4.768443 0 8 31
2.637314 0.374629 5.730789 6 29 75
-1.827905 0.291638 4.150821 13 32 75
-0.027622 0.353259 4.504068 34 62 96
0.245104 0.384566 4.589270 1 25 77
6.001638 0.759442 8.774780 17 38 93
-3.064796 0.503375 4.935273 5 23 86
-1.932738 0.507099 3.958315 30 44 93
0.457304 0.693016 4.353615 3 17 39
-1.558414 0.643142 3.864403 24 42 95
-2.010163 0.723559 3.775264 9 12 50
-2.006279 0.829624 3.702782 6 23 49
-2.117814 0.864198 3.679619 14 29 75
-1.762174 0.872110 3.639952 49 79 114
0.425764 0.998748 4.141392 4 34 81
-1.878528 0.920876 3.622945 54 79 121
-1.822903 0.940887 3.595523 10 29 67
-1.822903 0.940887 3.595523 10 29 67
-1.941731 0.949572 3.602336 13 38 72
-1.941731 0.949572 3.602336 13 38 72
-1.928766 0.959332 3.575704 54 80 120
-1.775030 0.967650 3.569110 46 80 109
-1.742687 1.012407 3.523328 48 70 112
0.658870 1.159712 4.094214 2 13 57
0.658870 1.159712 4.094214 2 13 57
-1.725505 1.027446 3.510712 18 24 61
-1.739508 1.038674 3.510700 18 32 74
-1.750654 1.048676 3.495323 15 31 68
0.718580 1.207219 4.079240 10 22 70
-1.409759 0.966727 3.149096 16 38 79
0.807819 1.286534 4.004588 88 119 152
0.629686 1.346545 3.913791 3 13 47
0.076481 -1.921753 6.384835 17 25 54
0.678330 -1.900587 6.555485 0 17 82
0.300831 -1.774260 6.299672 43 70 121
0.300831 -1.774260 6.299672 43 70 121
1.428841 -2.497266 8.997812 103 136 175
0.834960 -1.772250 6.486602 68 104 140
0.021669 -1.634238 6.102803 106 143 181
0.736046 -1.696923 6.389620 92 121 152
0.903842 -1.569141 6.323366 112 138 185
0.788960 -1.548702 6.267686 101 128 165
0.595429 -1.509828 6.181872 74 116 153
-0.848603 -0.916611 5.342989 24 23 67
-0.897851 -0.887513 5.231130 56 69 115
-1.035977 -0.845053 5.245900 23 20 42
-1.036002 -0.801842 5.209734 58 70 110
3.858222 -0.509083 7.079840 12 38 92
2.776265 -0.368954 5.775323 8 39 94
3.079803 -0.149441 6.380062 15 35 93
-0.333632 -0.016924 4.689629 1 6 37
-0.041820 0.277825 4.564231 49 63 121
-2.132653 0.265102 4.190916 39 63 105
0.379487 0.580630 4.467149 36 67 120
-1.941536 0.550588 3.920902 24 44 92
-1.447868 0.571111 3.945736 19 42 92
-1.510883 0.612693 3.885715 13 22 60
-1.924280 0.684506 3.809857 74 104 145
-1.924280 0.684506 3.809857 74 104 145
-2.311190 0.700045 3.846966 71 98 135
-2.311190 0.700045 3.846966 71 98 135
-1.945285 0.772903 3.737345 19 26 69
0.832185 0.924260 4.366749 44 67 105
-1.963660 0.835826 3.691189 15 20 41
-2.085751 0.858840 3.691297 16 30 53
-1.746906 0.874760 3.654402 7 25 66
-1.914935 0.899985 3.632291 73 103 144
-2.026272 0.991937 3.583325 14 29 68
1.058266 1.171845 4.268953 40 64 106
0.768495 1.213028 4.097572 0 13 49
0.320740 -1.941156 6.470252 60 93 139
0.231435 -1.826740 6.374965 29 41 81
-0.974807 -0.956889 5.359370 13 15 39
-0.974807 -0.956889 5.359370 13 15 39
-0.985145 -0.918506 5.352463 58 71 109
-1.016361 -0.757958 5.177852 21 15 38
5.967624 -1.049417 13.717602 1 8 23
5.967624 -1.049417 13.717602 1 8 23
2.726355 -0.391748 5.727989 56 105 155
5.426387 -0.744547 12.493344 63 103 155
1.331447 -0.013972 4.766056 60 103 152
-1.943517 0.247877 4.171914 8 9 37
-2.026329 0.303818 4.132488 80 109 154
0.001109 0.368858 4.516998 5 10 19
-1.889357 0.526875 3.949327 15 24 51
0.152982 0.617058 4.364240 52 77 121
-2.040307 0.598365 3.885182 6 11 42
-2.040307 0.598365 3.885182 6 11 42
-1.735019 0.617229 3.858713 9 21 55
-1.663655 0.734639 3.737000 16 27 54
-1.541346 0.767311 3.741869 33 53 94
-1.212960 0.781745 3.775463 34 54 89
-1.987584 0.824927 3.701400 38 67 98
-1.942767 0.826088 3.693221 60 96 144
-2.106146 0.853098 3.688738 57 87 134
-2.476003 0.879777 3.757942 10 19 63
-2.280905 0.965319 3.683478 36 55 90
-1.413844 0.964830 3.612244 18 35 78
-1.795035 1.115032 3.439136 101 135 178
0.667062 -2.088579 6.689674 123 154 199
0.762361 -2.014761 6.666297 84 111 155
0.799749 -1.963582 6.631242 23 38 70
0.970417 -1.826413 6.330782 17 40 88
0.601018 -1.648994 6.308577 125 145 203
0.655663 -1.614833 6.272228 19 37 74
0.685300 -1.501669 6.186890 87 115 156
2.270887 -1.323060 7.144268 11 14 28
-0.888046 -0.856848 5.277218 24 25 69
-0.841834 -0.845919 5.283718 66 84 125
3.907716 -0.677707 9.011192 9 15 26
-0.195023 -0.316834 5.022393 33 55 96
-0.266327 0.128105 4.619408 43 71 125
-0.266327 0.128105 4.619408 43 71 125
0.324827 0.563563 4.494625 11 24 62
0.471259 0.638091 4.438198 14 18 47
0.471259 0.638091 4.438198 14 18 47
0.206556 0.668000 4.334810 0 10 30
0.757712 0.875925 4.384403 6 10 35
-2.034576 0.813735 3.718071 31 56 96
-1.891247 0.898169 3.631846 21 32 60
1.007065 1.160130 4.198266 6 12 31
0.923617 1.257891 4.121603 4 10 33
-1.898458 1.174745 3.409137 33 36 74
1.972357 -1.500803 7.167667 94 136 183
-1.027068 -0.916786 5.289383 14 12 32
-0.942618 -0.860057 5.275152 20 17 56
-1.076364 -0.809274 5.193976 18 12 31
-0.855876 -0.730976 5.185949 26 32 69
-0.805464 -0.707662 5.195168 2 8 55
-2.085848 0.259145 4.139263 39 61 102
-2.261186 0.390119 4.115836 41 63 104
-2.029940 0.427757 4.028745 8 22 40
-1.507246 0.575541 3.923734 18 38 69
-1.892705 0.592170 3.873004 82 112 153
-1.892705 0.592170 3.873004 82 112 153
-2.547722 0.657405 3.919903 27 50 82
-1.954467 0.698112 3.812110 20 35 68
-1.954467 0.698112 3.812110 20 35 68
-1.932800 0.883556 3.648857 61 86 128
0.619351 -1.802320 6.446625 110 146 192
-1.041044 -1.012390 5.400907 40 46 93
-2.433824 0.281686 4.167891 24 45 90
-1.857092 0.606339 3.898940 19 28 61
-1.558600 0.646526 3.834434 47 68 113
-1.326145 0.687340 3.847344 104 134 181
0.801843 0.853800 4.413633 38 69 120
-1.236260 0.752293 3.781659 101 139 187
-1.236260 0.752293 3.781659 101 139 187
-2.231224 0.750682 3.795242 65 95 142
-2.021883 0.860477 3.695887 6 18 42
-2.057999 1.062623 3.514807 19 27 50
-2.057999 1.062623 3.514807 19 27 50
1.147213 1.268442 4.200228 52 95 128
2.097524 -1.596369 7.305500 9 13 32
1.797583 -1.327026 6.972823 107 147 195
-1.974884 0.430672 4.046439 73 108 152
-1.547264 0.604996 3.880860 85 117 166
-1.547264 0.604996 3.880860 85 117 166
-1.499319 0.685383 3.823385 81 116 159
-2.499406 0.802898 3.830328 34 51 90
0.964509 1.108694 4.257694 12 6 17
-1.917148 1.039040 3.528145 9 30 58
0.846967 1.265477 4.021735 14 21 36
0.846967 1.265477 4.021735 14 21 36
-0.887439 -0.976133 5.389021 42 57 96
2.342630 -0.423565 5.534050 10 13 28
1.864611 -0.272825 5.213879 114 145 198
1.864611 -0.272825 5.213879 114 145 198
1.570906 -0.188060 5.025446 113 146 196
-1.669014 0.642372 3.839340 66 99 145
-2.059024 0.661080 3.839245 16 30 58
-2.059024 0.661080 3.839245 16 30 58
-1.818126 0.676277 3.818180 61 97 143
-1.497990 0.764845 3.748093 36 66 107
-1.824383 0.952921 3.585097 48 85 123
1.084963 1.231647 4.208796 7 8 18
2.751970 -0.840599 6.194844 38 66 127
-2.231581 0.814332 3.709886 33 47 89
-1.252954 -0.705594 5.075068 17 13 54
-0.140509 -0.388137 5.079872 10 16 35
-2.162305 0.155216 4.327336 86 119 165
-1.849787 0.539706 3.937882 26 31 64
-1.849787 0.539706 3.937882 26 31 64
-2.161752 0.553106 3.947184 68 100 149
-1.981342 0.545187 3.904022 73 103 152
-1.316984 0.762785 3.816709 102 136 182
0.795464 -0.835478 5.534818 20 43 88
-1.269144 -0.061480 4.624392 31 62 115
-1.852781 0.713257 3.755274 59 88 127
-1.786415 1.188830 3.366924 97 132 175
0.450012 -1.833099 6.407615 114 147 192
-1.524762 0.913048 3.640753 95 133 181
0.798623 -2.022816 6.712573 94 130 168
0.756958 -1.981583 6.639685 91 119 160
0.329925 -1.917879 6.482440 34 72 126
0.250856 -1.880690 6.410357 9 35 71
0.753997 -1.921863 6.618730 0 20 67
0.245120 -1.844991 6.364340 53 99 140
0.662957 -1.866866 6.520146 88 116 170
0.333290 -1.815366 6.360419 71 101 136
0.660576 -1.839050 6.498963 56 85 130
0.671371 -1.830486 6.514533 77 111 157
0.672377 -1.779559 6.428485 68 94 141
0.659058 -1.731456 6.346477 10 42 85
0.639728 -1.680553 6.335781 18 41 91
0.630689 -1.651431 6.291795 18 32 91
0.623618 -1.619249 6.268352 89 118 162
0.632282 -1.587553 6.265981 74 100 137
2.905365 -2.306058 10.014584 14 29 55
2.606915 -2.153426 9.580882 7 18 70
2.683688 -0.413516 5.690188 0 21 73
2.598815 -0.378977 6.589429 0 18 41
0.826702 0.127616 5.036256 5 24 75
-1.206407 0.754906 3.788893 75 105 154
1.101645 1.258475 4.160307 39 59 100
0.812164 1.284824 4.009375 83 110 147
0.772284 1.310126 3.999368 96 112 155